HIERARCHY
ROOT Hips
{
	OFFSET 0.000000 0.000000 0.000000
	CHANNELS 6 Xposition Yposition Zposition Zrotation Yrotation Xrotation 
	JOINT LHipJoint
	{
		OFFSET 0.000000 0.000000 0.000000
		CHANNELS 3 Zrotation Yrotation Xrotation
		JOINT LeftUpLeg
		{
			OFFSET 1.363060 -1.794630 0.839290
			CHANNELS 3 Zrotation Yrotation Xrotation
			JOINT LeftLeg
			{
				OFFSET 2.448110 -6.726130 0.000000
				CHANNELS 3 Zrotation Yrotation Xrotation
				JOINT LeftFoot
				{
					OFFSET 2.562200 -7.039590 0.000000
					CHANNELS 3 Zrotation Yrotation Xrotation
					JOINT LeftToeBase
					{
						OFFSET 0.157640 -0.433110 2.322550
						CHANNELS 3 Zrotation Yrotation Xrotation
						End Site
						{
							OFFSET 0.000000 0.000000 0.000000
						}
					}
				}
			}
		}
	}
	JOINT RHipJoint
	{
		OFFSET 0.000000 0.000000 0.000000
		CHANNELS 3 Zrotation Yrotation Xrotation
		JOINT RightUpLeg
		{
			OFFSET -1.305520 -1.794630 0.839290
			CHANNELS 3 Zrotation Yrotation Xrotation
			JOINT RightLeg
			{
				OFFSET -2.542530 -6.985550 0.000000
				CHANNELS 3 Zrotation Yrotation Xrotation
				JOINT RightFoot
				{
					OFFSET -2.568260 -7.056230 0.000000
					CHANNELS 3 Zrotation Yrotation Xrotation
					JOINT RightToeBase
					{
						OFFSET -0.164730 -0.452590 2.363150
						CHANNELS 3 Zrotation Yrotation Xrotation
						End Site
						{
							OFFSET 0.000000 0.000000 0.000000
						}
					}
				}
			}
		}
	}
	JOINT LowerBack
	{
		OFFSET 0.000000 0.000000 0.000000
		CHANNELS 3 Zrotation Yrotation Xrotation
		JOINT Spine
		{
			OFFSET 0.028270 2.035590 -0.193380
			CHANNELS 3 Zrotation Yrotation Xrotation
			JOINT Spine1
			{
				OFFSET 0.056720 2.048850 -0.042750
				CHANNELS 3 Zrotation Yrotation Xrotation
				JOINT Neck
				{
					OFFSET 0.000000 0.000000 0.000000
					CHANNELS 3 Zrotation Yrotation Xrotation
					JOINT Neck1
					{
						OFFSET -0.054170 1.746240 0.172020
						CHANNELS 3 Zrotation Yrotation Xrotation
						JOINT Head
						{
							OFFSET 0.104070 1.761360 -0.123970
							CHANNELS 3 Zrotation Yrotation Xrotation
							End Site
							{
								OFFSET 0.000000 0.000000 0.000000
							}
						}
					}
				}
				JOINT LeftShoulder
				{
					OFFSET 0.000000 0.000000 0.000000
					CHANNELS 3 Zrotation Yrotation Xrotation
					JOINT LeftArm
					{
						OFFSET 3.362410 1.200890 -0.311210
						CHANNELS 3 Zrotation Yrotation Xrotation
						JOINT LeftForeArm
						{
							OFFSET 4.983000 -0.000000 -0.000000
							CHANNELS 3 Zrotation Yrotation Xrotation
							JOINT LeftHand
							{
								OFFSET 3.483560 -0.000000 -0.000000
								CHANNELS 3 Zrotation Yrotation Xrotation
								JOINT LeftFingerBase
								{
									OFFSET 0.000000 0.000000 0.000000
									CHANNELS 3 Zrotation Yrotation Xrotation
									JOINT LeftHandIndex1
									{
										OFFSET 0.715260 -0.000000 -0.000000
										CHANNELS 3 Zrotation Yrotation Xrotation
										End Site
										{
											OFFSET 0.000000 0.000000 0.000000
										}
									}
								}
								JOINT LThumb
								{
									OFFSET 0.000000 0.000000 0.000000
									CHANNELS 3 Zrotation Yrotation Xrotation
									End Site
									{
										OFFSET 0.000000 0.000000 0.000000
									}
								}
							}
						}
					}
				}
				JOINT RightShoulder
				{
					OFFSET 0.000000 0.000000 0.000000
					CHANNELS 3 Zrotation Yrotation Xrotation
					JOINT RightArm
					{
						OFFSET -3.136600 1.374050 -0.404650
						CHANNELS 3 Zrotation Yrotation Xrotation
						JOINT RightForeArm
						{
							OFFSET -5.241900 -0.000000 -0.000000
							CHANNELS 3 Zrotation Yrotation Xrotation
							JOINT RightHand
							{
								OFFSET -3.444170 -0.000000 -0.000000
								CHANNELS 3 Zrotation Yrotation Xrotation
								JOINT RightFingerBase
								{
									OFFSET 0.000000 0.000000 0.000000
									CHANNELS 3 Zrotation Yrotation Xrotation
									JOINT RightHandIndex1
									{
										OFFSET -0.622530 -0.000000 -0.000000
										CHANNELS 3 Zrotation Yrotation Xrotation
										End Site
										{
											OFFSET 0.000000 0.000000 0.000000
										}
									}
								}
								JOINT RThumb
								{
									OFFSET 0.000000 0.000000 0.000000
									CHANNELS 3 Zrotation Yrotation Xrotation
									End Site
									{
										OFFSET 0.000000 0.000000 0.000000
									}
								}
							}
						}
					}
				}
			}
		}
	}
}
MOTION
Frames: 6
Frame Time: 0.008333
10.163220 17.823464 19.186668 -179.044350 3.432852 -165.759303 4.879459 3.058081 -0.311759 -23.901624 -12.605601 -8.201367 0.132039 2.939513 9.529420 0.283103 -6.261845 -9.727820 6.538600 -14.930700 -47.106700 -10.546505 -5.029260 -2.191867 32.559019 5.994602 -4.821209 0.062914 -2.627541 11.533154 -1.178301 1.541005 -18.249213 -1.212500 6.985300 -19.671700 -2.068895 3.471243 -6.962494 0.488798 3.821122 -5.465455 2.553656 1.995216 3.372416 -4.710444 7.262642 -11.149360 5.932722 9.127452 16.145078 1.586200 4.553200 6.355500 2.111390 -4.975155 1.384192 -90.071944 -1.927902 16.137372 4.775231 -13.052216 -1.463661 0.435560 1.119156 33.457315 32.248809 -17.344268 -11.533800 -7.125000 0.000000 0.000000 2.791500 8.163600 -2.369700 -1.421435 5.410063 1.947230 87.478762 -8.808195 -5.786381 -8.543423 26.884978 -4.530046 -0.138170 -2.600181 14.948294 -23.268425 -40.330289 15.031000 7.125000 0.000000 0.000000 15.217900 -69.295000 -8.928400 
10.169543 17.822606 19.186240 -179.040829 3.407023 -165.802126 4.883121 3.056827 -0.318236 -23.901390 -12.735430 -8.037345 0.122187 2.903080 9.437163 0.290521 -6.160044 -9.802785 6.540000 -14.931900 -47.112200 -10.543429 -5.025939 -2.202825 32.598179 6.005471 -4.716650 0.071304 -2.605131 11.481550 -1.182993 1.485099 -18.290208 -1.321400 7.280200 -20.548300 -2.043846 3.547128 -6.936134 0.459768 3.919832 -5.431467 2.476027 2.033404 3.442021 -4.701423 7.256500 -11.186203 5.977392 9.121852 16.106779 1.600700 4.557600 6.343300 2.104190 -4.974434 1.390600 -89.941421 -1.977609 16.671467 4.832152 -13.141526 -1.471977 0.421695 1.126451 33.083199 32.289144 -17.140976 -11.436400 -7.125000 0.000000 0.000000 2.852000 8.385400 -2.408600 -1.437589 5.401129 1.947607 87.585724 -8.770912 -5.806327 -8.579651 26.937549 -4.537999 -0.143770 -2.606114 14.823888 -23.409072 -40.017233 15.013900 7.125000 0.000000 0.000000 14.670200 -69.031400 -8.515400 
10.177151 17.822499 19.188812 -178.891071 3.331946 -165.772716 4.888402 3.047002 -0.326927 -23.671700 -12.839640 -8.061975 0.122275 2.917315 9.468449 0.295795 -6.108316 -9.860704 6.539100 -14.931100 -47.108600 -10.554350 -5.027300 -2.195482 32.835403 6.085519 -4.690278 0.083084 -2.601401 11.458889 -1.181377 1.394634 -18.297535 -1.474100 7.672000 -21.722100 -1.870069 3.623049 -6.963925 0.447935 3.992493 -5.420105 2.364943 2.071460 3.458510 -4.608856 7.304013 -10.961427 5.912454 9.158334 15.931958 1.544100 4.579400 6.237500 2.103047 -4.987381 1.399476 -89.829735 -1.979524 17.049504 4.902981 -13.240749 -1.473743 0.409797 1.126697 32.940512 32.045671 -16.688951 -11.068300 -7.125000 0.000000 0.000000 2.766400 8.960500 -2.304500 -1.446304 5.392854 1.949672 87.713746 -8.822159 -5.798054 -8.638098 27.027724 -4.558992 -0.147865 -2.615676 14.775269 -23.479985 -39.928935 15.026100 7.125000 0.000000 0.000000 14.467500 -68.957100 -8.371800 
10.185403 17.822928 19.192562 -178.818560 3.268380 -165.752446 4.892730 3.041934 -0.329693 -23.524315 -12.848158 -8.164387 0.128673 2.947174 9.541410 0.293676 -6.155089 -9.842337 6.537900 -14.930100 -47.104200 -10.562559 -5.027593 -2.191164 32.969053 6.134216 -4.665553 0.094724 -2.582363 11.400190 -1.174221 1.302901 -18.261247 -1.360500 7.382900 -20.854900 -1.800757 3.665824 -6.960848 0.442805 4.036754 -5.423263 2.335776 2.100079 3.421375 -4.616463 7.374735 -10.745018 5.916712 9.227525 15.799600 1.534300 4.613100 6.142700 2.104162 -5.003973 1.403211 -89.862597 -1.993427 16.841270 4.929728 -13.264700 -1.472883 0.415195 1.120370 33.293955 31.843445 -16.505215 -10.874200 -7.125000 0.000000 0.000000 2.662300 9.218100 -2.203900 -1.448368 5.388926 1.951729 87.735341 -8.894486 -5.701941 -8.655300 27.065664 -4.560603 -0.091283 -2.641382 14.693227 -22.314207 -40.375160 14.426100 7.125000 0.000000 0.000000 16.414000 -69.031500 -9.546400 
10.193761 17.821963 19.195134 -178.870703 3.238752 -165.717206 4.897578 3.040941 -0.328376 -23.533830 -12.849218 -8.292942 0.136328 2.977409 9.614484 0.288695 -6.247233 -9.795453 6.527300 -14.920500 -47.062900 -10.564701 -5.019996 -2.188640 32.945167 6.221856 -4.655539 0.103013 -2.563755 11.344782 -1.170652 1.193914 -18.256333 -1.303600 7.233000 -20.407700 -1.905049 3.704463 -6.953352 0.430227 4.101599 -5.431628 2.393671 2.136108 3.371135 -4.697761 7.420843 -10.732894 5.995894 9.287856 15.804607 1.579200 4.642400 6.135800 2.101606 -5.011615 1.399736 -89.953878 -2.079226 16.418275 4.895387 -13.203226 -1.469136 0.428468 1.115004 33.836294 31.858868 -16.568602 -10.916400 -7.125000 0.000000 0.000000 2.661300 9.142300 -2.207100 -1.444045 5.393721 1.952001 87.688111 -8.951093 -5.665351 -8.715202 27.125752 -4.579546 -0.015740 -2.665998 14.810627 -20.685190 -41.167340 13.630900 7.125000 0.000000 0.000000 19.377700 -69.289100 -11.424900 
10.199870 17.820356 19.195563 -178.964105 3.208461 -165.651001 4.903446 3.039207 -0.326503 -23.609731 -12.894272 -8.429197 0.144877 3.019918 9.719898 0.285460 -6.302514 -9.768474 6.519100 -14.913100 -47.031000 -10.560441 -5.013738 -2.186521 32.853083 6.262732 -4.730554 0.101773 -2.572008 11.355934 -1.173938 1.152034 -18.295229 -1.370400 7.408600 -20.931700 -2.035000 3.739405 -7.005917 0.410785 4.165737 -5.433956 2.437646 2.166207 3.368116 -4.664824 7.485841 -10.729268 5.950486 9.381501 15.795975 1.559300 4.688100 6.138900 2.097357 -5.009168 1.397726 -89.984123 -2.163728 16.472237 4.906763 -13.216562 -1.470671 0.429873 1.114263 33.838555 31.822807 -16.541887 -10.885500 -7.125000 0.000000 0.000000 2.640800 9.180200 -2.188100 -1.433925 5.393589 1.955739 87.629667 -8.949856 -5.819461 -8.815499 27.204389 -4.628899 -0.061560 -2.641664 15.524324 -21.341482 -41.367998 14.123700 7.125000 0.000000 0.000000 18.855000 -69.682300 -11.273700 
